<?xml version="1.0" encoding="UTF-8" standalone="no"?>
<!-- Created with Inkscape (http://www.inkscape.org/) -->

<svg
   xmlns:dc="http://purl.org/dc/elements/1.1/"
   xmlns:cc="http://creativecommons.org/ns#"
   xmlns:rdf="http://www.w3.org/1999/02/22-rdf-syntax-ns#"
   xmlns:svg="http://www.w3.org/2000/svg"
   xmlns="http://www.w3.org/2000/svg"
   xmlns:sodipodi="http://sodipodi.sourceforge.net/DTD/sodipodi-0.dtd"
   xmlns:inkscape="http://www.inkscape.org/namespaces/inkscape"
   width="744.09448819"
   height="1052.3622047"
   id="svg3067"
   version="1.1"
   inkscape:version="0.48.4 r9939"
   sodipodi:docname="New document 2">
  <defs
     id="defs3069">
    <clipPath
       clipPathUnits="userSpaceOnUse"
       id="clipPath96">
      <path
         d="m 0,595.28 841.89,0 L 841.89,0 0,0 0,595.28 z"
         id="path98"
         inkscape:connector-curvature="0" />
    </clipPath>
    <clipPath
       clipPathUnits="userSpaceOnUse"
       id="clipPath84">
      <path
         d="m 0,595.28 841.89,0 L 841.89,0 0,0 0,595.28 z"
         id="path86"
         inkscape:connector-curvature="0" />
    </clipPath>
    <clipPath
       clipPathUnits="userSpaceOnUse"
       id="clipPath72">
      <path
         d="m 0,595.28 841.89,0 L 841.89,0 0,0 0,595.28 z"
         id="path74"
         inkscape:connector-curvature="0" />
    </clipPath>
    <clipPath
       clipPathUnits="userSpaceOnUse"
       id="clipPath60">
      <path
         d="m 0,595.28 841.89,0 L 841.89,0 0,0 0,595.28 z"
         id="path62"
         inkscape:connector-curvature="0" />
    </clipPath>
    <clipPath
       clipPathUnits="userSpaceOnUse"
       id="clipPath16">
      <path
         d="m 0,595.28 841.89,0 L 841.89,0 0,0 0,595.28 z"
         id="path18"
         inkscape:connector-curvature="0" />
    </clipPath>
  </defs>
  <sodipodi:namedview
     id="base"
     pagecolor="#ffffff"
     bordercolor="#666666"
     borderopacity="1.0"
     inkscape:pageopacity="0.0"
     inkscape:pageshadow="2"
     inkscape:zoom="0.35"
     inkscape:cx="375"
     inkscape:cy="520"
     inkscape:document-units="px"
     inkscape:current-layer="layer1"
     showgrid="false"
     inkscape:window-width="1215"
     inkscape:window-height="1000"
     inkscape:window-x="65"
     inkscape:window-y="50"
     inkscape:window-maximized="1" />
  <metadata
     id="metadata3072">
    <rdf:RDF>
      <cc:Work
         rdf:about="">
        <dc:format>image/svg+xml</dc:format>
        <dc:type
           rdf:resource="http://purl.org/dc/dcmitype/StillImage" />
        <dc:title></dc:title>
      </cc:Work>
    </rdf:RDF>
  </metadata>
  <g
     inkscape:label="Layer 1"
     inkscape:groupmode="layer"
     id="layer1">
    <g
       transform="matrix(2.3793835,0,0,-2.6531583,-616.70317,1342.8813)"
       id="g12">
      <g
         id="g14"
         clip-path="url(#clipPath16)">
        <g
           id="g24"
           transform="translate(287.5635,362.3589)">
          <path
             d="m 0,0 c -12.556,0.006 -22.732,-10.19 -22.735,-22.735 l 0.017,-95.214 c 0.003,-12.588 10.197,-22.747 22.738,-22.759 12.566,0.015 22.744,10.178 22.731,22.758 l 0.002,95.227 C 22.748,-10.181 12.558,0.009 0,0"
             style="fill:#ffffff;fill-opacity:1;fill-rule:nonzero;stroke:none"
             id="path26"
             inkscape:connector-curvature="0" />
        </g>
        <g
           id="g40"
           transform="translate(319.1611,210.5244)">
          <path
             d="m 0,0 c -0.012,-13.436 10.833,-24.282 24.257,-24.277 l 16.52,-10e-4 0.019,-50.379 c -0.003,-12.541 10.187,-22.738 22.72,-22.739 12.564,0 22.742,10.206 22.731,22.756 l 0.002,50.368 30.696,0.005 -0.002,-50.377 c 0.011,-12.543 10.214,-22.749 22.744,-22.728 12.562,-0.008 22.747,10.198 22.745,22.749 l -0.014,50.363 16.58,0.005 c 13.378,-0.005 24.261,10.867 24.26,24.274 L 203.232,147.578 -0.037,147.542 0,0 z"
             style="fill:#ffffff;fill-opacity:1;fill-rule:nonzero;stroke:none"
             id="path42"
             inkscape:connector-curvature="0" />
        </g>
        <g
           id="g48"
           transform="translate(553.9053,362.3896)" />
        <g
           id="g52"
           transform="translate(319.1245,358.0659)">
          <path
             d="m 0,0 0.035,-147.555 c -0.011,-13.422 10.845,-24.255 24.26,-24.258 l 16.519,-0.007 0.019,-50.379 c -0.003,-12.541 10.193,-22.739 22.72,-22.739 12.564,0 22.742,10.206 22.745,22.755 l -0.012,50.369 30.696,0.006 0.013,-50.377 c -0.003,-12.535 10.199,-22.749 22.728,-22.729 12.563,-0.007 22.747,10.199 22.745,22.749 l -0.013,50.364 16.576,0.012 c 13.383,-0.004 24.268,10.844 24.271,24.266 L 203.277,0.035 0,0 z m -31.561,4.293 c -12.556,0.006 -22.732,-10.19 -22.735,-22.735 l 0.017,-95.214 c 0.003,-12.588 10.183,-22.745 22.74,-22.743 12.564,-0.001 22.742,10.162 22.729,22.742 l 0.002,95.227 C -8.813,-5.888 -19.003,4.302 -31.561,4.293"
             style="fill:#a4c439;fill-opacity:1;fill-rule:nonzero;stroke:none"
             id="path54"
             inkscape:connector-curvature="0" />
        </g>
      </g>
    </g>
    <g
       transform="matrix(2.3793835,0,0,-2.6531583,-616.70317,1342.8813)"
       id="g56">
      <g
         id="g58"
         clip-path="url(#clipPath60)">
        <g
           id="g64"
           transform="translate(493.7998,321.9712)">
          <path
             d="m 0,0 -20.118,34.059 -14.451,-8.537 20.118,-34.058 c 8.6,-14.56 5.021,-32.635 -7.981,-40.315 -13.003,-7.682 -30.56,-2.092 -39.161,12.469 l -20.118,34.058 -14.452,-8.537 20.119,-34.058 c 13.88,-23.498 42.184,-32.51 63.17,-20.114 C 8.112,-52.636 13.881,-23.498 0,0 m -90.893,49.68 40.238,-68.117 15.209,8.984 -40.238,68.117 -15.209,-8.984 z m -13.014,39.397 c 13.002,7.681 30.56,2.092 39.16,-12.468 l 20.119,-34.058 14.451,8.536 -20.119,34.059 c -13.88,23.497 -42.183,32.509 -63.17,20.112 -20.986,-12.397 -26.755,-41.535 -12.875,-65.032 l 20.119,-34.059 14.452,8.537 -20.119,34.058 c -8.6,14.56 -5.021,32.634 7.982,40.315"
             style="fill:#000000;fill-opacity:1;fill-rule:nonzero;stroke:none"
             id="path66"
             inkscape:connector-curvature="0" />
        </g>
      </g>
    </g>
    <g
       id="g68"
       transform="matrix(2.3793835,0,0,-2.6531583,-619.00976,1361.285)">
      <g
         id="g70"
         clip-path="url(#clipPath72)">
        <g
           id="g76"
           transform="translate(451.9561,471.1938)">
          <path
             d="M 0,0 9.323,31.698 C 9.828,33.358 8.874,35.125 7.191,35.633 5.504,36.103 3.755,35.151 3.28,33.487 L -6.135,1.459 C -20.596,4.445 -36.057,4.518 -51.657,1.094 -67.222,-2.29 -81.247,-8.784 -93.098,-17.479 l -21.905,25.112 c -1.144,1.328 -3.139,1.463 -4.44,0.32 -1.332,-1.141 -1.471,-3.149 -0.313,-4.443 l 21.688,-24.906 c -27.047,-22.373 -41.104,-56.797 -33.588,-91.156 L 68.438,-68.854 C 60.945,-34.494 33.871,-9.114 0,0"
             style="fill:#a4c439;fill-opacity:1;fill-rule:nonzero;stroke:none"
             id="path78"
             inkscape:connector-curvature="0" />
        </g>
      </g>
    </g>
    <g
       transform="matrix(2.3793835,0,0,-2.6531583,-616.70317,1342.8813)"
       id="g80">
      <g
         id="g82"
         clip-path="url(#clipPath84)">
        <g
           id="g88"
           transform="translate(465.4482,276.6396)">
          <path
             d="m 0,0 c -7.509,-10.064 -5.439,-24.31 4.625,-31.816 10.056,-7.517 24.31,-5.434 31.818,4.632 l 56.936,76.316 c 7.519,10.074 5.443,24.3 -4.624,31.817 -10.062,7.509 -24.291,5.448 -31.818,-4.632 L 0,0 z"
             style="fill:#a4c439;fill-opacity:1;fill-rule:nonzero;stroke:none"
             id="path90"
             inkscape:connector-curvature="0" />
        </g>
      </g>
    </g>
    <g
       transform="matrix(2.3793835,0,0,-2.6531583,-616.70317,1342.8813)"
       id="g92">
      <g
         id="g94"
         clip-path="url(#clipPath96)">
        <g
           id="g100"
           transform="translate(378.2651,401.0234)">
          <path
             d="m 0,0 c -4.708,-0.271 -8.771,3.329 -9.054,8.057 -0.278,4.708 3.318,8.808 8.042,9.089 4.74,0.286 8.805,-3.362 9.091,-8.068 C 8.362,4.354 4.748,0.284 0,0"
             style="fill:#ffffff;fill-opacity:1;fill-rule:nonzero;stroke:none"
             id="path102"
             inkscape:connector-curvature="0" />
        </g>
        <g
           id="g104"
           transform="translate(458.1191,414.376)">
          <path
             d="m 0,0 c -4.726,-0.287 -8.801,3.317 -9.082,8.061 -0.264,4.696 3.33,8.801 8.065,9.098 C 3.685,17.425 7.771,13.781 8.048,9.074 8.34,4.343 4.726,0.281 0,0"
             style="fill:#ffffff;fill-opacity:1;fill-rule:nonzero;stroke:none"
             id="path106"
             inkscape:connector-curvature="0" />
        </g>
      </g>
    </g>
  </g>
</svg>
